<?xml version="1.0" standalone="no"?>
<!DOCTYPE svg PUBLIC "-//W3C//DTD SVG 20010904//EN"
 "http://www.w3.org/TR/2001/REC-SVG-20010904/DTD/svg10.dtd">
<svg version="1.0" xmlns="http://www.w3.org/2000/svg"
 width="198.000000pt" height="81.000000pt" viewBox="0 0 198.000000 81.000000"
 preserveAspectRatio="xMidYMid meet">

<g transform="translate(0.000000,81.000000) scale(0.100000,-0.100000)"
fill="#000000" stroke="none">
<path d="M305 606 c-61 -19 -143 -64 -154 -83 -8 -15 -2 -42 14 -61 2 -2 15 8
30 22 33 31 140 86 167 86 10 0 18 -5 18 -11 0 -6 -63 -75 -140 -153 -77 -78
-140 -147 -140 -153 0 -6 9 -22 20 -36 l20 -25 90 29 c110 35 134 36 172 4 16
-14 35 -25 43 -25 25 0 74 70 91 128 14 52 35 82 55 82 5 0 -5 -32 -22 -71
-33 -76 -35 -122 -6 -127 11 -2 17 3 17 17 0 22 44 149 67 194 11 22 17 26 28
17 11 -9 8 -26 -16 -95 -32 -90 -30 -113 10 -135 16 -8 24 -4 45 21 l26 30 9
-24 c19 -49 58 -43 81 14 13 29 13 29 24 8 6 -12 19 -27 29 -33 15 -9 22 -6
40 14 l22 25 15 -29 c22 -43 35 -42 69 5 28 38 31 40 31 17 0 -24 27 -58 47
-58 5 0 22 21 36 48 24 42 27 44 27 20 0 -16 9 -33 23 -43 21 -15 23 -14 49
17 24 29 27 31 28 12 0 -11 8 -28 18 -37 17 -16 20 -12 56 69 21 46 40 83 42
81 2 -1 -4 -26 -12 -56 -15 -49 -15 -54 2 -72 9 -10 22 -19 29 -19 6 0 27 32
45 71 19 39 38 72 41 75 3 2 -1 -21 -9 -51 -14 -51 -14 -56 3 -75 24 -26 51
-25 66 2 l12 22 13 -26 c15 -28 43 -43 55 -31 5 5 18 26 28 48 15 29 20 34 21
19 0 -11 11 -31 24 -43 l24 -22 27 35 c26 34 70 135 62 143 -2 2 -19 -21 -38
-52 -18 -30 -37 -55 -41 -55 -9 0 17 89 43 150 19 42 19 45 3 57 -22 16 -41
17 -46 1 -3 -9 -12 -9 -36 1 -26 11 -35 11 -48 0 -18 -14 -58 -91 -68 -129 -3
-14 -18 -38 -32 -55 l-26 -30 8 35 c3 19 17 60 31 90 22 51 23 55 7 67 -10 7
-23 13 -29 13 -14 0 -50 -48 -87 -115 -34 -62 -35 -53 -3 27 14 34 25 63 25
64 0 2 -9 8 -21 14 -26 15 -49 -5 -91 -75 -31 -52 -29 -31 3 43 l18 43 -25 11
c-31 14 -36 7 -61 -72 -16 -52 -70 -146 -79 -137 -6 5 34 134 52 170 14 26 13
28 -12 37 -18 7 -30 7 -39 0 -9 -7 -21 -7 -39 1 -23 11 -29 9 -51 -11 -14 -13
-34 -49 -46 -79 -20 -57 -79 -139 -78 -111 0 8 17 62 37 120 l38 105 72 -3
c40 -2 72 1 72 6 0 20 -28 32 -78 32 -48 0 -53 2 -42 15 15 18 5 31 -24 37
-13 2 -24 -7 -36 -27 -15 -27 -23 -30 -69 -33 -59 -4 -60 -22 0 -22 21 0 39
-2 39 -5 0 -2 -11 -39 -25 -81 -22 -68 -85 -176 -85 -146 0 11 41 141 55 174
9 21 -30 45 -49 29 -9 -7 -22 -7 -45 2 -31 11 -34 10 -57 -18 -13 -16 -33 -54
-44 -83 -24 -63 -70 -135 -70 -109 0 9 9 40 20 69 26 68 26 68 -9 107 -25 28
-28 36 -18 52 10 16 9 21 -3 29 -28 18 -49 11 -57 -17 -4 -16 -6 -34 -5 -40 5
-23 -17 -50 -43 -55 -20 -4 -29 1 -45 27 -25 41 -46 50 -75 31 -33 -21 -61
-72 -81 -143 -15 -56 -19 -60 -36 -50 -15 10 -32 7 -91 -14 -39 -14 -80 -29
-90 -34 -10 -4 34 43 98 106 64 62 125 128 136 146 24 38 20 72 -11 103 -23
23 -30 23 -85 6z m585 -166 c0 -15 -65 -141 -85 -165 -16 -20 -16 -20 -11 3
13 52 20 70 43 120 13 28 31 52 39 52 8 0 14 -5 14 -10z m309 -17 c-19 -51
-84 -164 -87 -153 -5 14 35 131 54 158 8 12 22 22 29 22 12 0 12 -6 4 -27z
m516 5 c-11 -35 -86 -170 -92 -164 -6 6 24 100 49 149 21 41 54 53 43 15z
m-1231 -13 c-4 -17 -1 -27 9 -31 14 -5 14 -10 1 -47 -18 -52 -41 -87 -56 -87
-16 0 -3 80 23 140 23 54 33 65 23 25z"/>
</g>
</svg>
