<?xml version="1.0" standalone="no"?>
<!DOCTYPE svg PUBLIC "-//W3C//DTD SVG 20010904//EN"
 "http://www.w3.org/TR/2001/REC-SVG-20010904/DTD/svg10.dtd">
<svg version="1.0" xmlns="http://www.w3.org/2000/svg"
 width="94.000000pt" height="32.000000pt" viewBox="0 0 94.000000 32.000000"
 preserveAspectRatio="xMidYMid meet">

<g transform="translate(0.000000,32.000000) scale(0.100000,-0.100000)"
fill="#000000" stroke="none">
<path d="M87 272 c-23 -25 -21 -64 3 -95 l20 -26 -22 -4 c-13 -2 4 -4 37 -4
33 0 50 2 37 4 l-22 4 20 26 c25 33 26 67 0 93 -25 25 -52 26 -73 2z m67 -8
c20 -20 20 -48 0 -79 -20 -31 -38 -32 -58 -3 -42 60 9 131 58 82z"/>
<path d="M101 247 c-17 -21 -3 -49 23 -45 15 2 21 10 21 28 0 28 -26 38 -44
17z m39 -17 c0 -11 -6 -20 -14 -20 -18 0 -29 16 -21 30 11 18 35 11 35 -10z"/>
<path d="M11 73 c1 -27 3 -31 6 -14 4 18 7 21 13 10 5 -7 12 -11 15 -7 7 7
-16 48 -27 48 -5 0 -7 -17 -7 -37z"/>
<path d="M51 98 c1 -7 5 -24 9 -38 7 -22 8 -21 9 13 1 20 -3 37 -9 37 -5 0
-10 -6 -9 -12z"/>
<path d="M90 98 c0 -7 -3 -24 -6 -38 -6 -20 -4 -23 6 -13 11 10 17 10 28 0 13
-10 15 -8 9 13 -4 14 -7 31 -7 38 0 6 -7 12 -15 12 -8 0 -15 -6 -15 -12z"/>
<path d="M140 73 l0 -37 20 22 c11 12 20 28 20 37 0 8 -9 15 -20 15 -16 0 -20
-7 -20 -37z m30 17 c0 -5 -4 -10 -10 -10 -5 0 -10 5 -10 10 0 6 5 10 10 10 6
0 10 -4 10 -10z"/>
<path d="M190 95 c0 -9 7 -18 15 -21 8 -4 15 -10 15 -15 0 -4 -7 -5 -17 -2
-11 4 -14 3 -9 -5 12 -19 36 -14 36 8 0 11 -4 20 -10 20 -5 0 -10 5 -10 11 0
5 5 7 10 4 6 -3 10 -1 10 4 0 6 -9 11 -20 11 -11 0 -20 -7 -20 -15z"/>
</g>
</svg>
